<svg width="70" height="40" xmlns="http://www.w3.org/2000/svg" fill="#fff">
   <path d="m12.06658,33.5033l-7.3254,-27.0048l4.80524,0l5.62836,20.7411l6.0321,-20.7429l4.4793,0.0018l6.0532,20.8513l5.6537,-20.8462l4.8051,-0.0069l-7.3285,27.0018l-5.5698,-0.0057l-5.8515,-20.1668l-5.857,20.172l-5.5248,0.0053z"/>
   <path d="m65.25883,25.7803c0,2.21 -0.788,4.0465 -2.397,5.5095c-1.609,1.463 -3.502,2.21 -5.836,2.21l-11.7038,0l0,-26.9873l10.8518,0c2.24,0 4.132,0.7471 5.678,2.1478c1.578,1.4318 2.335,3.2061 2.335,5.3227c0,2.3657 -0.947,4.1711 -2.776,5.5096c2.397,1.2451 3.848,3.4862 3.848,6.2877zm-15.426,-15.0967l0,7.097l6.372,0c1.988,0 3.502,-1.5564 3.502,-3.5485c0,-1.9922 -1.514,-3.5485 -3.502,-3.5485l-6.372,0zm7.224,18.6452c2.082,0 3.723,-1.6498 3.723,-3.7664c0,-2.1167 -1.641,-3.7664 -3.723,-3.7664l-7.224,0l0,7.5639l7.224,0l0,-0.0311z"/>
</svg>